# xmcd
#
# Track frame offsets:
#	150
#	15403
#	29955
#	51316
#	68265
#	83491
#	98608
#	116026
#	132600
#	151331
#	165465
#	183003
#
# Disc length: 2628 seconds
#
# Revision: 0
# Processed by: cddbd v1.5.2PL0 Copyright (c) Steve Scherf et al.
# Submitted via: EasyCDDAExtractor 15.3.0.1
#
DISCID=8e0a420c
DTITLE=Pandora - Momentos Inolvidables
DYEAR=2005
DGENRE=Latin
TTITLE0=En Carne Viva
TTITLE1=Reloj
TTITLE2=El Amor De Mi Vida
TTITLE3=Todo Se Derrumbo Dentro De Mi
TTITLE4=Eres Tu
TTITLE5=Que No Se Rompa La Noche
TTITLE6=Que Ganas De No Verte Nunca Mas
TTITLE7=Jamas
TTITLE8=Se Nos Rompio El Amor
TTITLE9=Algo De Mi
TTITLE10=Popurri Jose Jose (El Amar Y El Querer, Lagrimas, Lo Dudo)
TTITLE11=Me Cuesta Tanto Olvidarte
EXTD=
EXTT0=
EXTT1=
EXTT2=
EXTT3=
EXTT4=
EXTT5=
EXTT6=
EXTT7=
EXTT8=
EXTT9=
EXTT10=
EXTT11=
PLAYORDER=
